<?xml version="1.0" encoding="utf-8"?>
<!DOCTYPE svg PUBLIC "-//W3C//DTD SVG 1.0//EN" "http://www.w3.org/TR/2001/REC-SVG-20010904/DTD/svg10.dtd">
<svg version="1.0" xmlns="http://www.w3.org/2000/svg" width="874px" height="749px" viewBox="0 0 874 749" preserveAspectRatio="xMidYMid meet">
 <g fill="none" stroke="#3c3c3c" stroke-width="0.78">
  <path d="M0 374.57 l0 -374.57 437 0 437 0 0 374.57 0 374.57 -437 0 -437 0 0 -374.57z m267.27 212.96 c22.16 -3.04 42.45 -13.19 58.14 -28.95 15.92 -16 18.18 -20.29 48.38 -91.93 8.27 -19.51 17.01 -40.27 19.51 -46.04 2.50 -5.77 8.12 -19.12 12.49 -29.65 4.37 -10.53 9.21 -21.93 10.69 -25.36 20.21 -46.12 25.28 -63.91 25.36 -88.18 0.08 -28.87 -9.60 -57.43 -26.69 -78.58 -18.34 -22.63 -40.42 -36.21 -68.28 -41.67 -9.36 -1.87 -30.43 -1.87 -41.36 0 -31.21 5.23 -54.08 16.54 -72.73 35.82 -17.25 17.87 -27.16 39.80 -29.89 65.94 -1.40 13.58 1.48 29.73 7.73 42.84 4.84 9.99 7.57 13.97 14.44 21.15 15.92 16.54 36.29 25.13 59.39 25.13 16.78 0 30.12 -3.90 64.46 -18.81 6.24 -2.65 11.78 -4.60 13.34 -4.60 2.65 0 2.81 0.16 4.84 5.31 3.90 9.60 7.41 7.18 -38.94 26.61 -53.30 22.32 -55.48 23.25 -71.25 31.29 -43.39 22.32 -68.52 48.23 -79.67 82.41 -4.37 13.34 -5.85 22.16 -5.85 34.65 0 17.64 4.37 32.31 13.81 46.43 4.06 6.01 15.14 17.09 21.54 21.38 17.87 12.17 40.42 17.64 60.56 14.83z m270.16 -0.31 c31.21 -4.14 56.19 -15.61 75.15 -34.65 12.25 -12.33 19.90 -24.27 25.21 -39.56 9.21 -26.45 8.19 -51.66 -3.12 -73.98 -15.45 -30.51 -51.27 -48.15 -85.76 -42.22 -12.25 2.11 -28.17 7.80 -52.60 18.81 -4.53 2.03 -9.52 3.82 -11.08 3.98 -2.89 0.39 -2.97 0.31 -4.68 -3.36 -0.94 -2.26 -1.72 -5.54 -1.72 -7.96 l-0.08 -4.14 33.24 -13.89 c72.89 -30.59 82.33 -35.04 102.93 -48.69 38.55 -25.67 60.17 -61.80 60.32 -100.82 0.08 -15.92 -2.89 -28.25 -9.68 -40.89 -13.03 -24.35 -37.30 -40.27 -66.56 -43.86 -19.74 -2.42 -46.12 5.07 -64.85 18.42 -16.08 11.39 -27.94 26.69 -37.69 48.38 -3.36 7.34 -24.43 56.97 -46.98 110.42 -3.36 7.96 -12.25 29.03 -19.74 46.82 -19.04 44.79 -22.63 56.19 -24.82 78.50 -2.42 25.21 5.46 55.64 20.21 77.96 25.36 38.24 66.33 56.73 112.29 50.72z"/>
 </g>
 <g fill="#000000">
  <path d="M242.30 589.87 c-12.64 -1.87 -27.23 -7.57 -37.93 -14.83 -6.40 -4.29 -17.48 -15.37 -21.54 -21.38 -6.01 -8.90 -10.38 -19.59 -12.80 -31.21 -1.56 -7.34 -1.40 -28.17 0.39 -37.46 6.63 -35.58 25.99 -62.97 60.48 -85.84 19.04 -12.56 34.26 -19.74 100.35 -47.21 18.88 -7.88 34.57 -14.51 34.88 -14.75 0.39 -0.39 -2.81 -9.13 -3.67 -10.07 -0.16 -0.16 -5.15 1.79 -11.08 4.37 -35.74 15.53 -47.60 18.88 -66.95 18.88 -25.60 0 -45.26 -7.96 -61.73 -25.13 -6.87 -7.18 -9.60 -11.16 -14.44 -21.15 -13.89 -29.26 -9.91 -68.13 10.22 -98.79 14.83 -22.55 38.86 -39.10 68.05 -46.90 15.22 -3.98 22.86 -4.99 40.03 -4.99 17.25 0 23.57 0.86 37.07 5.15 36.36 11.55 66.41 44.17 76.08 82.41 3.67 14.75 4.53 21.62 4.53 36.44 -0.08 26.77 -4.68 43.08 -25.44 90.52 -1.48 3.43 -6.32 14.83 -10.69 25.36 -4.37 10.53 -9.99 23.88 -12.49 29.65 -2.50 5.77 -11.24 26.53 -19.51 46.04 -30.20 71.64 -32.46 75.93 -48.38 91.93 -15.69 15.76 -35.97 25.91 -58.14 28.95 -6.95 1.01 -20.52 0.94 -27.31 0z"/>
  <path d="M503.33 589.87 c-32.85 -4.21 -61.49 -22.40 -80.53 -51.04 -15.22 -23.02 -22.86 -53.69 -20.21 -81.70 2.11 -22.94 5.54 -34.02 24.82 -79.44 7.49 -17.79 16.39 -38.86 19.74 -46.82 22.55 -53.45 43.62 -103.09 46.98 -110.42 14.44 -32.07 34.41 -51.35 63.68 -61.57 23.96 -8.35 48.07 -7.65 70.08 1.95 25.52 11.16 42.45 32.23 48.38 60.17 2.11 9.83 1.87 30.36 -0.39 41.20 -9.05 42.92 -38.32 74.91 -91.69 100.28 -12.17 5.77 -23.72 10.77 -69.84 30.12 -37.22 15.61 -34.57 13.81 -31.37 21.23 l1.64 3.75 2.34 -1.25 c2.97 -1.56 21.85 -9.60 31.99 -13.66 16.70 -6.63 29.26 -9.36 43.70 -9.36 11.24 0 20.21 1.48 29.97 4.99 36.44 13.03 57.20 47.52 53.53 89.19 -2.34 26.77 -12.49 48.62 -31.21 67.42 -18.96 19.04 -43.93 30.51 -75.15 34.65 -9.75 1.25 -27.94 1.40 -36.44 0.31z"/>
 </g>
</svg>